<svg width="49" height="48" viewBox="0 0 49 48" fill="none" xmlns="http://www.w3.org/2000/svg">
<g clip-path="url(#clip0_841_760)">
<path d="M8.5 12H4.5V40C4.5 42.2 6.3 44 8.5 44H36.5V40H8.5V12ZM40.5 4H16.5C14.3 4 12.5 5.8 12.5 8V32C12.5 34.2 14.3 36 16.5 36H40.5C42.7 36 44.5 34.2 44.5 32V8C44.5 5.8 42.7 4 40.5 4ZM38.5 22H18.5V18H38.5V22ZM30.5 30H18.5V26H30.5V30ZM38.5 14H18.5V10H38.5V14Z" fill="white"/>
</g>
<defs>
<clipPath id="clip0_841_760">
<rect width="48" height="48" fill="white" transform="translate(0.5)"/>
</clipPath>
</defs>
</svg>
