<svg width="46" height="41" viewBox="0 0 46 41" fill="none" xmlns="http://www.w3.org/2000/svg">
<path d="M27.7121 36.7605C32.6183 33.0072 39.6983 27.1312 42.6487 22.4318C44.8563 18.9209 45.5746 14.5713 44.6144 10.527C42.5629 1.31453 31.2022 -2.44991 24.1258 3.72374C23.7278 4.06866 23.3609 4.45103 22.9843 4.84366C22.8307 5.0039 22.6753 5.16583 22.5155 5.32763C22.3557 5.16583 22.2003 5.00388 22.0466 4.84364C21.67 4.45103 21.3032 4.06866 20.9052 3.72374C13.8287 -2.44991 2.46811 1.31453 0.416531 10.527C-0.543687 14.5713 0.174534 18.9209 2.38224 22.4318C5.33261 27.1312 12.4126 33.0072 17.3188 36.7605C18.6859 37.8066 22.5155 40.5313 22.5155 40.5313C22.5155 40.5313 26.3451 37.8066 27.7121 36.7605Z" fill="white"/>
</svg>
