<svg width="32" height="32" viewBox="0 0 32 32" fill="none" xmlns="http://www.w3.org/2000/svg">
<path d="M16 0.000488281C7.16429 0.000488281 0 7.16477 0 16.0005C0 24.8362 7.16429 32.0005 16 32.0005C24.8357 32.0005 32 24.8362 32 16.0005C32 7.16477 24.8357 0.000488281 16 0.000488281ZM23.6893 12.0612C23.7 12.2291 23.7 12.4041 23.7 12.5755C23.7 17.8183 19.7071 23.8576 12.4107 23.8576C10.1607 23.8576 8.075 23.2041 6.31786 22.0791C6.63929 22.1148 6.94643 22.1291 7.275 22.1291C9.13214 22.1291 10.8393 21.5005 12.2 20.4362C10.4571 20.4005 8.99286 19.2576 8.49286 17.6862C9.10357 17.7755 9.65357 17.7755 10.2821 17.6148C9.38474 17.4325 8.57812 16.9451 7.99934 16.2354C7.42056 15.5258 7.10531 14.6377 7.10714 13.7219V13.6719C7.63214 13.9683 8.25 14.1505 8.89643 14.1755C8.35301 13.8133 7.90735 13.3227 7.59897 12.747C7.29059 12.1714 7.12901 11.5285 7.12857 10.8755C7.12857 10.1362 7.32143 9.4612 7.66786 8.87549C8.66394 10.1017 9.9069 11.1046 11.3159 11.8189C12.725 12.5333 14.2686 12.9432 15.8464 13.0219C15.2857 10.3255 17.3 8.14335 19.7214 8.14335C20.8643 8.14335 21.8929 8.62192 22.6179 9.39335C23.5143 9.22549 24.3714 8.88977 25.1357 8.43977C24.8393 9.35763 24.2179 10.1326 23.3929 10.6219C24.1929 10.5362 24.9643 10.3148 25.6786 10.0041C25.1393 10.7969 24.4643 11.5005 23.6893 12.0612Z" fill="white"/>
</svg>
