<svg width="32" height="32" viewBox="0 0 32 32" fill="none" xmlns="http://www.w3.org/2000/svg">
<g clip-path="url(#clip0_876_973)">
<path d="M9.0135 6.4534L6.6135 4.06673L4.7335 5.94673L7.12016 8.3334L9.0135 6.4534ZM5.3335 14.0001H1.3335V16.6667H5.3335V14.0001ZM17.3335 0.733398H14.6668V4.66673H17.3335V0.733398ZM27.2668 5.94673L25.3868 4.06673L23.0002 6.4534L24.8802 8.3334L27.2668 5.94673ZM22.9868 24.2134L25.3735 26.6134L27.2535 24.7334L24.8535 22.3467L22.9868 24.2134ZM26.6668 14.0001V16.6667H30.6668V14.0001H26.6668ZM16.0002 7.3334C11.5868 7.3334 8.00016 10.9201 8.00016 15.3334C8.00016 19.7467 11.5868 23.3334 16.0002 23.3334C20.4135 23.3334 24.0002 19.7467 24.0002 15.3334C24.0002 10.9201 20.4135 7.3334 16.0002 7.3334ZM14.6668 29.9334H17.3335V26.0001H14.6668V29.9334ZM4.7335 24.7201L6.6135 26.6001L9.00016 24.2001L7.12016 22.3201L4.7335 24.7201Z" fill="#333333"/>
</g>
<defs>
<clipPath id="clip0_876_973">
<rect width="32" height="32" fill="white"/>
</clipPath>
</defs>
</svg>
